<svg xmlns="http://www.w3.org/2000/svg" version="1.1" width="18.5in" height="7in" viewBox = " 0 0 1665 630" >
<!-- Front--> 
<g transform="translate(22.5, 22.5) " > 
<polygon style="stroke:#000000; fill:none; stroke-width:0.9" points="0, 0 42.75000000000001, 0 42.75000000000001, 10.62 85.50000000000001, 10.62 85.50000000000001, 0 112.50000000000001, 0 112.50000000000001, 10.62 139.5, 10.62 139.5, 0 166.5, 0 166.5, 10.62 193.5, 10.62 193.5, 0 220.5, 0 220.5, 10.62 247.5, 10.62 247.5, 0 274.5, 0 274.5, 10.62 301.5, 10.62 301.5, 0 328.5, 0 328.5, 10.62 355.5, 10.62 355.5, 0 382.5, 0 382.5, 10.62 409.5, 10.62 409.5, 0 436.5, 0 436.5, 10.62 463.5, 10.62 463.5, 0 490.5, 0 490.5, 10.62 517.5, 10.62 517.5, 0 544.5, 0 544.5, 10.62 587.25, 10.62 587.25, 0 630, 0 630, 36 619.38, 36 619.38, 72 630, 72 630, 99 619.38, 99 619.38, 126 630, 126 630, 153 619.38, 153 619.38, 189 630, 189 630, 225 587.25, 225 587.25, 214.38 544.5, 214.38 544.5, 225 517.5, 225 517.5, 214.38 490.5, 214.38 490.5, 225 463.5, 225 463.5, 214.38 436.5, 214.38 436.5, 225 409.5, 225 409.5, 214.38 382.5, 214.38 382.5, 225 355.5, 225 355.5, 214.38 328.5, 214.38 328.5, 225 301.5, 225 301.5, 214.38 274.5, 214.38 274.5, 225 247.5, 225 247.5, 214.38 220.5, 214.38 220.5, 225 193.5, 225 193.5, 214.38 166.5, 214.38 166.5, 225 139.5, 225 139.5, 214.38 112.50000000000001, 214.38 112.50000000000001, 225 85.50000000000001, 225 85.50000000000001, 214.38 42.75000000000001, 214.38 42.75000000000001, 225 0, 225 0, 189 10.62, 189 10.62, 153 0, 153 0, 126 10.62, 126 10.62, 99 0, 99 0, 72 10.62, 72 10.62, 36 0, 36 "/> 
</g>
<!-- Back--> 
<g transform="translate(652.5, 22.5) " > 
<polygon style="stroke:#000000; fill:none; stroke-width:0.9" points="0, 0 42.75000000000001, 0 42.75000000000001, 10.62 85.50000000000001, 10.62 85.50000000000001, 0 112.50000000000001, 0 112.50000000000001, 10.62 139.5, 10.62 139.5, 0 166.5, 0 166.5, 10.62 193.5, 10.62 193.5, 0 220.5, 0 220.5, 10.62 247.5, 10.62 247.5, 0 274.5, 0 274.5, 10.62 301.5, 10.62 301.5, 0 328.5, 0 328.5, 10.62 355.5, 10.62 355.5, 0 382.5, 0 382.5, 10.62 409.5, 10.62 409.5, 0 436.5, 0 436.5, 10.62 463.5, 10.62 463.5, 0 490.5, 0 490.5, 10.62 517.5, 10.62 517.5, 0 544.5, 0 544.5, 10.62 587.25, 10.62 587.25, 0 630, 0 630, 36 619.38, 36 619.38, 72 630, 72 630, 99 619.38, 99 619.38, 126 630, 126 630, 153 619.38, 153 619.38, 189 630, 189 630, 225 587.25, 225 587.25, 214.38 544.5, 214.38 544.5, 225 517.5, 225 517.5, 214.38 490.5, 214.38 490.5, 225 463.5, 225 463.5, 214.38 436.5, 214.38 436.5, 225 409.5, 225 409.5, 214.38 382.5, 214.38 382.5, 225 355.5, 225 355.5, 214.38 328.5, 214.38 328.5, 225 301.5, 225 301.5, 214.38 274.5, 214.38 274.5, 225 247.5, 225 247.5, 214.38 220.5, 214.38 220.5, 225 193.5, 225 193.5, 214.38 166.5, 214.38 166.5, 225 139.5, 225 139.5, 214.38 112.50000000000001, 214.38 112.50000000000001, 225 85.50000000000001, 225 85.50000000000001, 214.38 42.75000000000001, 214.38 42.75000000000001, 225 0, 225 0, 189 10.62, 189 10.62, 153 0, 153 0, 126 10.62, 126 10.62, 99 0, 99 0, 72 10.62, 72 10.62, 36 0, 36 "/> 
</g>
<!-- Left--> 
<g transform="translate(1282.5, 22.5) " > 
<polygon style="stroke:#000000; fill:none; stroke-width:0.9" points="10.62, 0 42.75000000000001, 0 42.75000000000001, 10.62 85.50000000000001, 10.62 85.50000000000001, 0 112.50000000000001, 0 112.50000000000001, 10.62 139.5, 10.62 139.5, 0 166.5, 0 166.5, 10.62 193.5, 10.62 193.5, 0 220.5, 0 220.5, 10.62 247.5, 10.62 247.5, 0 274.5, 0 274.5, 10.62 317.25, 10.62 317.25, 0 349.38, 0 349.38, 36 360, 36 360, 72 349.38, 72 349.38, 99 360, 99 360, 126 349.38, 126 349.38, 153 360, 153 360, 189 349.38, 189 349.38, 225 317.25, 225 317.25, 214.38 274.5, 214.38 274.5, 225 247.5, 225 247.5, 214.38 220.5, 214.38 220.5, 225 193.5, 225 193.5, 214.38 166.5, 214.38 166.5, 225 139.5, 225 139.5, 214.38 112.50000000000001, 214.38 112.50000000000001, 225 85.50000000000001, 225 85.50000000000001, 214.38 42.75000000000001, 214.38 42.75000000000001, 225 10.62, 225 10.62, 189 0, 189 0, 153 10.62, 153 10.62, 126 0, 126 0, 99 10.62, 99 10.62, 72 0, 72 0, 36 10.62, 36 "/> 
</g>
<!-- Right--> 
<g transform="translate(1282.5, 247.5) " > 
<polygon style="stroke:#000000; fill:none; stroke-width:0.9" points="10.62, 0 42.75000000000001, 0 42.75000000000001, 10.62 85.50000000000001, 10.62 85.50000000000001, 0 112.50000000000001, 0 112.50000000000001, 10.62 139.5, 10.62 139.5, 0 166.5, 0 166.5, 10.62 193.5, 10.62 193.5, 0 220.5, 0 220.5, 10.62 247.5, 10.62 247.5, 0 274.5, 0 274.5, 10.62 317.25, 10.62 317.25, 0 349.38, 0 349.38, 36 360, 36 360, 72 349.38, 72 349.38, 99 360, 99 360, 126 349.38, 126 349.38, 153 360, 153 360, 189 349.38, 189 349.38, 225 317.25, 225 317.25, 214.38 274.5, 214.38 274.5, 225 247.5, 225 247.5, 214.38 220.5, 214.38 220.5, 225 193.5, 225 193.5, 214.38 166.5, 214.38 166.5, 225 139.5, 225 139.5, 214.38 112.50000000000001, 214.38 112.50000000000001, 225 85.50000000000001, 225 85.50000000000001, 214.38 42.75000000000001, 214.38 42.75000000000001, 225 10.62, 225 10.62, 189 0, 189 0, 153 10.62, 153 10.62, 126 0, 126 0, 99 10.62, 99 10.62, 72 0, 72 0, 36 10.62, 36 "/> 
</g>
<!-- Top--> 
<g transform="translate(22.5, 247.5) " > 
 <circle cx="135" cy="135" r="28.125" style="stroke:#000000;stroke-width:0.9;fill:none" /> 
 <circle cx="135" cy="225" r="33.75" style="stroke:#000000;stroke-width:0.9;fill:none" /> 
 <rect x="270" y="135" width="62.099999999999994" height="112.5" rx="0" ry="0" style="stroke:#000000;stroke-width:0.9;fill:none" /> 
 <circle cx="180" cy="450" r="45" style="stroke:#000000;stroke-width:0.9;fill:none" /> 
 <circle cx="180" cy="450" r="45" style="stroke:#000000;stroke-width:0.9;fill:none" /> 
 <circle cx="450" cy="180" r="45" style="stroke:#000000;stroke-width:0.9;fill:none" /> 
<polygon style="stroke:#000000; fill:none; stroke-width:0.9" points="10.62, 10.62 42.75000000000001, 10.62 42.75000000000001, 0 85.50000000000001, 0 85.50000000000001, 10.62 112.50000000000001, 10.62 112.50000000000001, 0 139.5, 0 139.5, 10.62 166.5, 10.62 166.5, 0 193.5, 0 193.5, 10.62 220.5, 10.62 220.5, 0 247.5, 0 247.5, 10.62 274.5, 10.62 274.5, 0 301.5, 0 301.5, 10.62 328.5, 10.62 328.5, 0 355.5, 0 355.5, 10.62 382.5, 10.62 382.5, 0 409.5, 0 409.5, 10.62 436.5, 10.62 436.5, 0 463.5, 0 463.5, 10.62 490.5, 10.62 490.5, 0 517.5, 0 517.5, 10.62 544.5, 10.62 544.5, 0 587.25, 0 587.25, 10.62 619.38, 10.62 619.38, 42.75000000000001 630, 42.75000000000001 630, 85.50000000000001 619.38, 85.50000000000001 619.38, 112.50000000000001 630, 112.50000000000001 630, 139.5 619.38, 139.5 619.38, 166.5 630, 166.5 630, 193.5 619.38, 193.5 619.38, 220.5 630, 220.5 630, 247.5 619.38, 247.5 619.38, 274.5 630, 274.5 630, 317.25 619.38, 317.25 619.38, 349.38 587.25, 349.38 587.25, 360 544.5, 360 544.5, 349.38 517.5, 349.38 517.5, 360 490.5, 360 490.5, 349.38 463.5, 349.38 463.5, 360 436.5, 360 436.5, 349.38 409.5, 349.38 409.5, 360 382.5, 360 382.5, 349.38 355.5, 349.38 355.5, 360 328.5, 360 328.5, 349.38 301.5, 349.38 301.5, 360 274.5, 360 274.5, 349.38 247.5, 349.38 247.5, 360 220.5, 360 220.5, 349.38 193.5, 349.38 193.5, 360 166.5, 360 166.5, 349.38 139.5, 349.38 139.5, 360 112.50000000000001, 360 112.50000000000001, 349.38 85.50000000000001, 349.38 85.50000000000001, 360 42.75000000000001, 360 42.75000000000001, 349.38 10.62, 349.38 10.62, 317.25 0, 317.25 0, 274.5 10.62, 274.5 10.62, 247.5 0, 247.5 0, 220.5 10.62, 220.5 10.62, 193.5 0, 193.5 0, 166.5 10.62, 166.5 10.62, 139.5 0, 139.5 0, 112.50000000000001 10.62, 112.50000000000001 10.62, 85.50000000000001 0, 85.50000000000001 0, 42.75000000000001 10.62, 42.75000000000001 "/> 
</g>
<!-- Bottom--> 
<g transform="translate(652.5, 247.5) " > 
<polygon style="stroke:#000000; fill:none; stroke-width:0.9" points="10.62, 10.62 42.75000000000001, 10.62 42.75000000000001, 0 85.50000000000001, 0 85.50000000000001, 10.62 112.50000000000001, 10.62 112.50000000000001, 0 139.5, 0 139.5, 10.62 166.5, 10.62 166.5, 0 193.5, 0 193.5, 10.62 220.5, 10.62 220.5, 0 247.5, 0 247.5, 10.62 274.5, 10.62 274.5, 0 301.5, 0 301.5, 10.62 328.5, 10.62 328.5, 0 355.5, 0 355.5, 10.62 382.5, 10.62 382.5, 0 409.5, 0 409.5, 10.62 436.5, 10.62 436.5, 0 463.5, 0 463.5, 10.62 490.5, 10.62 490.5, 0 517.5, 0 517.5, 10.62 544.5, 10.62 544.5, 0 587.25, 0 587.25, 10.62 619.38, 10.62 619.38, 42.75000000000001 630, 42.75000000000001 630, 85.50000000000001 619.38, 85.50000000000001 619.38, 112.50000000000001 630, 112.50000000000001 630, 139.5 619.38, 139.5 619.38, 166.5 630, 166.5 630, 193.5 619.38, 193.5 619.38, 220.5 630, 220.5 630, 247.5 619.38, 247.5 619.38, 274.5 630, 274.5 630, 317.25 619.38, 317.25 619.38, 349.38 587.25, 349.38 587.25, 360 544.5, 360 544.5, 349.38 517.5, 349.38 517.5, 360 490.5, 360 490.5, 349.38 463.5, 349.38 463.5, 360 436.5, 360 436.5, 349.38 409.5, 349.38 409.5, 360 382.5, 360 382.5, 349.38 355.5, 349.38 355.5, 360 328.5, 360 328.5, 349.38 301.5, 349.38 301.5, 360 274.5, 360 274.5, 349.38 247.5, 349.38 247.5, 360 220.5, 360 220.5, 349.38 193.5, 349.38 193.5, 360 166.5, 360 166.5, 349.38 139.5, 349.38 139.5, 360 112.50000000000001, 360 112.50000000000001, 349.38 85.50000000000001, 349.38 85.50000000000001, 360 42.75000000000001, 360 42.75000000000001, 349.38 10.62, 349.38 10.62, 317.25 0, 317.25 0, 274.5 10.62, 274.5 10.62, 247.5 0, 247.5 0, 220.5 10.62, 220.5 10.62, 193.5 0, 193.5 0, 166.5 10.62, 166.5 10.62, 139.5 0, 139.5 0, 112.50000000000001 10.62, 112.50000000000001 10.62, 85.50000000000001 0, 85.50000000000001 0, 42.75000000000001 10.62, 42.75000000000001 "/> 
</g></svg>